# xmcd
#
# Track frame offsets: 
#        150
#        16414
#        30817
#        48207
#        67622
#        85528
#        99362
#        120136
#        137912
#        155275
#
# Disc length: 2375 seconds
#
# Revision: 2
# Processed by: cddbd v1.5.2PL0 Copyright (c) Steve Scherf et al.
# Submitted via: ExactAudioCopy v1.3
#
DISCID=5d09450a
DTITLE=G.E.M. - Xposed
DYEAR=2012
DGENRE=Bebob
TTITLE0=WHAT HAVE U DONE
TTITLE1=下一秒
TTITLE2=Someday I'll Fly
TTITLE3=泡沬
TTITLE4=潛意式的殘酷
TTITLE5=OH BOY
TTITLE6=After Tonight
TTITLE7=失真
TTITLE8=奇蹟
TTITLE9=不存在的存在
EXTD=
EXTT0=
EXTT1=
EXTT2=
EXTT3=
EXTT4=
EXTT5=
EXTT6=
EXTT7=
EXTT8=
EXTT9=
PLAYORDER=
